# Blender 3.6.5
# www.blender.org
mtllib poster.mtl
o third_dice
v 0.100000 -0.500000 0.500000
v 0.100000 0.500000 0.500000
v -0.100000 -0.500000 0.500000
v -0.100000 0.500000 0.500000
v 0.100000 -0.500000 -0.500000
v 0.100000 0.500000 -0.500000
v -0.100000 -0.500000 -0.500000
v -0.100000 0.500000 -0.500000
vn -0.0000 -0.0000 1.0000
vn -1.0000 -0.0000 -0.0000
vn -0.0000 -0.0000 -1.0000
vn 1.0000 -0.0000 -0.0000
vn -0.0000 -1.0000 -0.0000
vn -0.0000 1.0000 -0.0000
vt 0.000000 0.000000
vt 1.000000 0.000000
vt 1.000000 1.000000
vt 0.000000 1.000000
s 0
usemtl Duck
f 5/1/4 6/2/4 2/3/4 1/4/4
usemtl Dock_White
f 1/1/1 2/2/1 4/3/1 3/4/1
f 3/1/2 4/2/2 8/3/2 7/4/2
f 7/1/3 8/2/3 6/3/3 5/4/3
f 3/1/5 7/2/5 5/3/5 1/4/5
f 8/1/6 4/2/6 2/3/6 6/4/6
